<svg xmlns="http://www.w3.org/2000/svg" viewBox="0 0 409.6 384.01">
<path d="M409.6,280V32c-1.19-3.79-1.9-7.81-3.64-11.32C398.81,6.33,386.76,0,371,0Q204.8,0,38.63,0c-.8,0-1.6,0-2.4,0-12,.41-22.3,4.81-29,14.92C3.86,20,2.35,26.29,0,32V280c1.19,3.79,1.89,7.81,3.64,11.32,7,14.19,18.94,20.68,34.57,20.68q102.52,0,205.06-.07a9.72,9.72,0,0,1,7.66,3.11q31.41,31.63,63,63.05a33.24,33.24,0,0,0,4.2,3.68,11.05,11.05,0,0,0,12.75.4c4.5-2.65,5.94-6.88,5.92-11.88q0-27,0-54V312c12.22,0,23.8,0,35.39,0,12.48-.06,23.18-4.45,30.2-14.94C405.76,292,407.26,285.74,409.6,280Zm-96.8,61.86-1.24.82a30.65,30.65,0,0,0-2.64-3.51c-14.87-14.92-29.88-29.7-44.61-44.75a20,20,0,0,0-15.52-6.52Q143.4,288.15,38,288c-9.38,0-14-4.63-14-14q0-118,0-236c0-9.38,4.61-14,14-14H371.56c9.4,0,14,4.6,14,14q0,118,0,236c0,9.41-4.59,14-13.94,14.05q-22,0-44,0c-10.49,0-14.84,4.33-14.85,14.76Q312.79,322.32,312.8,341.87Z"/><circle cx="113.13" cy="160.62" r="30.33"/><circle cx="204.8" cy="160.62" r="30.33"/>
<circle cx="296.47" cy="160.62" r="30.33"/>
</svg>