<svg xmlns="http://www.w3.org/2000/svg" xmlns:xlink="http://www.w3.org/1999/xlink" viewBox="0 0 1000 1000"><defs><style>.cls-1{fill:none;}.cls-2{clip-path:url(#clip-path);}</style><clipPath id="clip-path" transform="translate(-0.01)"><path class="cls-1" d="M333.33,500.32a166.67,166.67,0,1,1,167,166.34h-.36A166.63,166.63,0,0,1,333.33,500.32m166.16-257C357.72,243.54,243,358.72,243.27,500.49S358.71,757,500.48,756.72,757,641.31,756.75,499.51C756.47,357.93,641.56,243.27,500,243.26h-.51m266.75-70.64a60.06,60.06,0,1,0,.12,0h-.12M298.76,907.35c-48.75-2.13-75.22-10.23-92.86-17-23.36-9-40-19.88-57.58-37.3s-28.38-34.1-37.5-57.41C104,778,95.72,751.55,93.44,702.8c-2.48-52.7-3-68.51-3.29-202s.23-149.28,2.53-202c2.09-48.71,10.23-75.22,17-92.84,9-23.4,19.84-40,37.29-57.58s34.1-28.38,57.43-37.5c17.62-6.89,44.06-15.07,92.79-17.38,52.73-2.5,68.53-3,202-3.29s149.31.21,202.06,2.52c48.72,2.13,75.22,10.19,92.83,17,23.37,9,40,19.82,57.57,37.3s28.4,34.07,37.52,57.44c6.89,17.58,15.07,44,17.37,92.77,2.51,52.73,3.08,68.54,3.32,202s-.23,149.32-2.54,202c-2.13,48.74-10.21,75.23-17,92.89-9,23.34-19.85,40-37.31,57.56s-34.09,28.38-57.43,37.5c-17.6,6.87-44.06,15.07-92.76,17.38-52.73,2.48-68.53,3-202.05,3.29-20.59,0-38.38.07-53.94.07-85.29,0-103.46-.66-148.07-2.59M499,.07C363.28.33,346.25.91,292.92,3.47s-89.53,11-121.29,23.47c-32.87,12.82-60.73,30-88.45,57.82s-44.79,55.76-57.51,88.67C13.36,205.26,5,241.61,2.67,294.85S-.2,365.19.06,501s.86,152.8,3.4,206.15c2.54,53.19,11,89.51,23.48,121.28,12.83,32.87,30,60.71,57.83,88.45s55.76,44.76,88.68,57.49c31.8,12.3,68.17,20.68,121.39,23s70.35,2.87,206.09,2.61,152.83-.86,206.16-3.39,89.51-11.06,121.29-23.47c32.87-12.87,60.74-30,88.46-57.84s44.76-55.76,57.47-88.68c12.32-31.8,20.69-68.17,23-121.35,2.33-53.37,2.88-70.41,2.62-206.17s-.87-152.78-3.4-206.1-11-89.54-23.47-121.32c-12.85-32.87-30-60.7-57.82-88.45s-55.76-44.8-88.68-57.48C794.75,13.38,758.4,5,705.18,2.69,659.9.68,640.77,0,552.89,0,537.28,0,519.52,0,499,.07"/></clipPath></defs><title>asd</title><g id="Layer_2" data-name="Layer 2"><g id="Layer_1-2" data-name="Layer 1"><g class="cls-2"><rect width="1000" height="1000"/></g></g></g></svg>