<svg xmlns="http://www.w3.org/2000/svg" viewBox="0 0 1000 1000"><defs><style>.cls-1{fill:none;}</style></defs><title>kba</title><g id="Layer_2" data-name="Layer 2"><g id="Layer_1-2" data-name="Layer 1"><rect class="cls-1" width="1000" height="1000"/><polygon points="446.94 472.73 426.37 408.28 404.07 472.73 446.94 472.73"/><path d="M500,170C301.64,170,140.83,297.15,140.83,454c0,102.07,68.13,191.53,170.4,241.58-7.51,28-27.21,101.6-31.15,117.32-4.87,19.53,7.14,19.28,15,14,6.19-4.12,98.42-66.85,138.22-93.92a453.74,453.74,0,0,0,66.67,4.9c198.36,0,359.17-127.11,359.17-283.93S698.36,170,500,170ZM722.73,537.31,674,470.81l-11.15,8.94s0,32.85,0,50.16c0,14.9-38,14.94-38,0,0-9.45.82-137,.44-151.05-.2-7.77,9.77-11.79,19.52-11.79,9.11,0,18,3.51,18.22,10.77.51,19.12,0,53.71,0,53.71s55-55.09,62.86-62.85c8.08-8.05,33.1,17.16,25,25.18-13.84,13.77-49,51.76-49,51.76l51.76,68.16C763.59,526.82,732.59,550.3,722.73,537.31ZM448.42,378.09c6.55,14,42.48,112.69,52.87,140.12,7.28,19.19-27.84,32.49-35.12,13.31-9-23.72-6.65-24.77-6.65-24.77H391.87l-7.4,25.87c-7.89,18.13-41.91,3.34-34-14.8,10.91-25.09,43.77-119.7,52.86-139.73,3.6-7.93,12.07-11.1,20.76-11.1C434.56,367,445.4,371.61,448.42,378.09ZM361.82,367c23,0,23,36.16,0,36.16-24.4,0-36.78-.1-36.78-.1l-.17,124.13c.05,17.25-38.35,17-38.41-.25.21-23.66,0-125.2,0-125.2h-37c-21.67,0-21.74-35.42-.05-35.45C249.38,366.26,335.93,367,361.82,367Zm152.6,152.81s-.12-103.62-.18-135.78c0-11.31,10-17,20-17s20,5.63,20,16.89c0,23.28-.11,119.13-.11,119.13s31.71.19,49.09.19,17.46,37,.1,37-56.57.19-74.23.19S514.42,519.78,514.42,519.78Z"/></g></g></svg>