<svg xmlns="http://www.w3.org/2000/svg" viewBox="0 0 383.99 383.72">
<path d="M384,31.5v243c-.15.19-.38.36-.44.58-5.64,21-18.36,30.78-40.06,30.78H254.63c2.62,18.59,5.17,36.68,7.76,55,6.23,0,12.09-.09,17.94,0,8.14.16,13.53,7,11.44,14.3-1.61,5.65-5.78,8.43-13,8.44q-33.93.06-67.85.06-53.24,0-106.47-.08c-7.6,0-12.77-4.73-12.83-11.29S97,360.93,104.72,360.9c5,0,10,0,15.34,0,2.88-18.35,5.72-36.48,8.62-55H123.6q-42.73,0-85.48,0c-22.11,0-38.11-16-38.11-38Q0,152.57,0,37.3A36.42,36.42,0,0,1,28.33,1.41C30.62.86,32.94.47,35.24,0h313.5c1,.23,1.9.55,2.87.69,15.15,2.17,25.15,10.67,30.53,24.82C382.88,27.46,383.38,29.5,384,31.5ZM250.14,250.94c-11.91-19.21-5.28-38.57,6.59-48.88a37,37,0,0,1,46.66-1.42c15.27,11.54,18.24,29.09,8.43,50.55.95.7,1.91,1.45,2.91,2.16a47.9,47.9,0,0,1,16.49,20.44c1.35,3.08,1.8,7.51,4.13,9,2.53,1.58,6.78.48,10.27.42C356,283,361.5,277.37,361.5,267q0-49.31,0-98.61v-3.91h-158V283h24.08C233,266.51,233.56,265.65,250.14,250.94ZM22.48,164.47v22.19q0,40.49,0,81c0,9.6,5.76,15.32,15.38,15.43,2.63,0,5.27-.17,7.87.06s3.66-.87,4.65-3.39c2.13-5.4,4.32-11,7.71-15.63,3.69-5,8.75-9.07,13.32-13.65-11.79-19.2-4.57-38.7,7.19-48.62A37,37,0,0,1,125,200.62c15.39,11.74,18.36,29.25,8.54,50.36.13.2.22.48.41.61,10.85,7.19,18.17,16.91,21.38,29.64a2.77,2.77,0,0,0,1.92,1.74c7.71.12,15.42.07,23.24.07V164.47Zm181-141.41V141.63h24.27a48.93,48.93,0,0,1,22.39-31.77c-9.89-21-7.19-38.13,7.76-50.14a37,37,0,0,1,45.2-.69c15.53,11.74,18.45,28.51,8.69,50.86a49,49,0,0,1,22.32,31.67h27.39V40.24c0-12-5.14-17.17-17-17.17h-141Zm-23,118.71V23.23c-1.31-.06-2.41-.16-3.52-.16q-69.34,0-138.69,0c-10.32,0-15.84,5.64-15.84,16.08q0,49.29,0,98.58v3.9H49.37a48.8,48.8,0,0,1,22.48-31.79C59.64,89.6,67,70.67,78.05,60.92a37.25,37.25,0,0,1,44.5-3.41,36,36,0,0,1,14.71,18.37c4.32,11.92,2.54,23.23-4,33.89,11.37,7.39,18.82,17.16,22.09,30a3.32,3.32,0,0,0,2.49,1.89C165.29,141.83,172.77,141.77,180.53,141.77ZM151.59,306c-2.88,18.39-5.71,36.43-8.55,54.6h96.45c-2.61-18.42-5.17-36.5-7.73-54.6Zm158.84-23.1c-3.58-8.24-9.43-13.78-17.77-14.93a86.71,86.71,0,0,0-23.43,0c-8.31,1.14-14.13,6.64-17.79,14.93ZM132.14,141.59c-3.35-7.6-8.53-13.46-16.24-14.54a95.9,95.9,0,0,0-26.7,0c-7.65,1.11-13,6.85-16.14,14.53Zm178.16.08c-2.85-7.54-8.76-13.46-16.53-14.82-6.44-1.13-13.15-.88-19.74-1a22.8,22.8,0,0,0-17.56,7.87c-2,2.2-3.49,4.89-5.6,7.92ZM131.75,282.91c-2.71-7.73-9.83-14.22-17.94-15.07a134.64,134.64,0,0,0-21.63-.17C86.49,268,81.74,271,78,275.23c-1.89,2.13-3.29,4.69-5.34,7.68ZM280.87,103a14.42,14.42,0,0,0,14.58-14.44,14.48,14.48,0,0,0-29,.22A14.32,14.32,0,0,0,280.87,103Zm.1,141.53a14.63,14.63,0,0,0,14.48-14.25A14.48,14.48,0,1,0,281,244.52ZM102.7,103A14.27,14.27,0,0,0,117,88.71a14.55,14.55,0,0,0-14.57-14.48A14.33,14.33,0,0,0,88.22,89,14.05,14.05,0,0,0,102.7,103ZM88.22,230.19a14.31,14.31,0,0,0,14.26,14.33A14.54,14.54,0,0,0,117,230a14.31,14.31,0,0,0-14.73-14.23A14.07,14.07,0,0,0,88.22,230.19Z"/></svg>