<svg xmlns="http://www.w3.org/2000/svg" 
viewBox="0 0 384.22 275.8">
<path d="M384.22,245.89c-2.16,5-3.64,10.42-6.64,14.84-7,10.35-17.38,15-29.8,15q-53.23.06-106.47,0-102.36,0-204.7,0C18.2,275.77,3.48,264.13.9,246c-1.47-10.42-.78-21.2-.43-31.79C.65,208.84,6,205,11.89,204.86c4-.11,8,0,12.37,0V37.8C24.27,15,39.22,0,62,0H322.57c22.52,0,37.61,15.06,37.61,37.56q0,81.16,0,162.33v4.79c8.81.83,19-2.7,24,8.21ZM156.11,134.18c-21.84-23.13-16.4-55.15,1.79-72.43,18.57-17.64,48.31-18.09,67.56-1,18.47,16.4,25.58,49.17,3,73.41,1.29.64,2.5,1.21,3.68,1.83,26.31,13.83,42.53,35.3,48.2,64.47.73,3.76,2,4.48,5.42,4.45,15.88-.17,31.75-.07,47.62-.09,1.33,0,2.65-.12,4.25-.2v-4.05q0-81.36,0-162.73c0-10.28-4.87-15.13-15.17-15.13H61.86c-10.24,0-15,4.88-15,15.23q0,81.38,0,162.74v4.15c18.5,0,36.37,0,54.23-.12.91,0,2.46-1.54,2.62-2.55a89.53,89.53,0,0,1,22.06-45.92A90.56,90.56,0,0,1,156.11,134.18ZM22.71,227.65v9.19c0,11.81,4.44,16.24,16.29,16.24H345.3c1.38,0,2.76,0,4.12-.06,6.56-.5,11.42-4.71,12.1-11.19.47-4.54.09-9.17.09-14.18h-5c-39.86,0-79.73,0-119.59.09-2.7,0-5.42,1.23-8.09,2-3.68,1.08-7.3,3.18-11,3.28-16.47.45-33,.63-49.45.24-4.53-.1-9-2.52-13.51-3.84-2.21-.64-4.44-1.71-6.67-1.72q-60.54-.15-121.09-.07ZM258,204.83c-4.4-32.33-36.48-57.87-69.35-55.6-31.39,2.17-62.18,29.68-61.93,55.6,9.22,0,18.46-.26,27.67.15,3.15.13,6.23,1.94,9.33,3,2.75.93,5.47,2.66,8.23,2.72q20.22.44,40.45,0c2.77-.06,5.5-1.75,8.24-2.71,3-1,5.92-2.81,9-3,6.83-.46,13.72-.15,20.59-.15ZM191.89,71a27.63,27.63,0,0,0-27.47,27.77c0,15.19,12.64,28,27.56,27.85,15.73-.1,27.87-12.14,28-27.75C220.05,83,208,71,191.89,71Z"/></svg>