<svg xmlns="http://www.w3.org/2000/svg" viewBox="0 0 336.03 216.01"><title>cam</title><g id="Layer_2" data-name="Layer 2"><g id="Layer_1-2" data-name="Layer 1"><path d="M252,53.71c12.27-5.24,23.79-10.26,35.39-15.1,6.77-2.82,13.47-6.18,20.55-7.84,14-3.3,27.94,8.25,28,22.74.14,23.37.05,46.74.05,70.12,0,12.62,0,25.24,0,37.86-.08,17.69-16.75,29.11-33.08,22.44-15.7-6.41-31.23-13.23-46.83-19.87-1.13-.48-2.27-.92-4.08-1.65,0,6.22,0,12,0,17.77a34.5,34.5,0,0,1-9,23.6c-7.09,8-16,12.19-26.74,12.2q-90.36,0-180.72,0A35.67,35.67,0,0,1,.05,180.38Q-.06,108,.05,35.65A35.66,35.66,0,0,1,35.55.05q90.56-.09,181.1,0c19.33,0,35.17,16,35.33,35.39C252,41.3,252,47.16,252,53.71ZM126,192h88.08c9.11,0,13.9-4.78,13.9-13.86q0-70.09,0-140.18c0-9.24-4.81-14-14.16-14Q126,24,38.08,24,24,24,24,38q0,69.9,0,139.8C24,187.37,28.71,192,38.34,192ZM311.87,162V54.72a7.29,7.29,0,0,0-1.59.26C291.52,63,272.74,71.07,254,79.29c-1,.45-1.95,2.41-2,3.68-.13,16.61,0,33.22-.15,49.83,0,2.59.89,3.65,3.18,4.6,9.88,4.12,19.67,8.46,29.5,12.73Z"/></g></g></svg>